<svg xmlns="http://www.w3.org/2000/svg" viewBox="0 0 100 100">
  <path d="M15,50 Q25,20 50,15 Q75,20 85,50 Q75,80 50,85 Q25,80 15,50 Z" fill="#165a72" />
  <path d="M30,50 Q40,35 50,33 Q60,35 70,50 Q60,65 50,67 Q40,65 30,50 Z" fill="#29b6f6" opacity="0.8" />
  <circle cx="50" cy="40" r="4" fill="white" />
  <circle cx="40" cy="50" r="4" fill="white" />
  <circle cx="60" cy="50" r="4" fill="white" />
  <circle cx="50" cy="60" r="4" fill="white" />
  <line x1="50" y1="40" x2="40" y2="50" stroke="white" stroke-width="1.5" />
  <line x1="50" y1="40" x2="60" y2="50" stroke="white" stroke-width="1.5" />
  <line x1="40" y1="50" x2="50" y2="60" stroke="white" stroke-width="1.5" />
  <line x1="60" y1="50" x2="50" y2="60" stroke="white" stroke-width="1.5" />
</svg> 