<svg width="1024" height="1024" xmlns="http://www.w3.org/2000/svg" xmlns:svg="http://www.w3.org/2000/svg" version="1.0">
 <g class="layer">
  <title>Layer 1</title>
  <g fill="#002B5B" id="svg_1" stroke="#002B5B" stroke-width="2" transform="rotate(0.0257016 502.179 511.242) matrix(0.360676 0 0 -0.274478 -1059.55 -1079.28)">
   <path d="m3834.99,-4024.95c-71,-36 -102,-137 -61,-199c14,-22 61,-57 88,-67c4,-2 3,-183 -1,-403c-7,-344 -10,-407 -26,-450c-16,-46 -90,-196 -644,-1301c-110,-221 -207,-428 -216,-460c-19,-74 -19,-193 0,-266c36,-139 149,-274 285,-343c137,-69 78,-66 1101,-63c893,3 925,4 969,23c191,83 309,213 356,390c19,68 17,185 -2,264c-12,45 -114,259 -323,671c-168,333 -359,711 -424,840l-119,235l-9,95c-4,52 -9,246 -9,432l0,336l35,21c86,50 85,181 -2,238c-25,17 -63,18 -498,20c-406,2 -474,0 -500,-13zm795,-669c5,-408 8,-466 24,-515c10,-30 75,-167 146,-305c376,-733 699,-1386 709,-1434c43,-200 -58,-370 -256,-431c-63,-19 -92,-20 -922,-20c-912,0 -903,0 -999,49c-62,32 -129,103 -160,169c-22,48 -26,71 -26,142c0,111 -2,106 317,739c520,1035 545,1085 556,1141c7,34 14,225 18,493l6,437l291,-2l291,-3l5,-460z" id="svg_2"/>
   <path d="m4314.99,-4586.95c-41,-25 -52,-41 -60,-82c-13,-72 62,-135 137,-114c37,11 78,64 78,101c0,40 -29,84 -65,99c-44,18 -54,18 -90,-4z" id="svg_3"/>
   <path d="m4233.99,-5083.95c-41,-17 -64,-51 -64,-93c0,-68 42,-111 108,-112c71,0 115,63 96,138c-15,59 -83,92 -140,67z" id="svg_4"/>
   <path d="m4403.99,-5467.95c-130,-59 -129,-255 2,-313c142,-62 287,80 226,222c-23,54 -48,77 -99,96c-52,18 -81,17 -129,-5z" id="svg_5"/>
   <path d="m3874.99,-5909.95l-81,-20l-77,-152c-42,-84 -129,-253 -192,-377c-269,-522 -255,-490 -255,-569c0,-84 18,-126 77,-183c73,-71 28,-68 992,-68c816,0 868,1 906,19c100,45 150,124 150,236c-1,75 -7,92 -85,235c-42,76 -160,302 -305,580l-80,155l-115,6c-160,9 -281,33 -451,90c-225,74 -333,85 -484,48zm263,-306c54,-34 64,-124 22,-183c-45,-64 -164,-60 -203,7c-21,37 -25,110 -7,143c28,53 130,71 188,33zm307,-438c51,-50 18,-145 -50,-145c-48,0 -64,8 -81,42c-22,43 -11,94 24,113c41,22 80,18 107,-10z" id="svg_6"/>
  </g>
 </g>
</svg>